<?xml version="1.0" encoding="UTF-8" standalone="no"?><!DOCTYPE svg PUBLIC "-//W3C//DTD SVG 1.1//EN" "http://www.w3.org/Graphics/SVG/1.1/DTD/svg11.dtd"><svg width="100%" height="100%" viewBox="0 0 1167 1323" version="1.1" xmlns="http://www.w3.org/2000/svg" xmlns:xlink="http://www.w3.org/1999/xlink" xml:space="preserve" xmlns:serif="http://www.serif.com/" style="fill-rule:evenodd;clip-rule:evenodd;stroke-linejoin:round;stroke-miterlimit:2;"><g id="Hexa"><path d="M548.154,1311.67l-503.697,-290.784c-24.63,-14.277 -39.819,-40.699 -39.759,-69.168l-0,-581.098c-0.06,-28.468 15.129,-54.891 39.759,-69.167l503.697,-290.784c24.645,-14.229 55.109,-14.229 79.754,-0l503.697,290.784c24.63,14.276 39.818,40.699 39.759,69.167l0,581.804c0.059,28.469 -15.129,54.891 -39.759,69.167l-503.697,290.079c-24.645,14.229 -55.109,14.229 -79.754,-0Z" style="fill:#393e46;fill-rule:nonzero;"/></g><g id="Hands"><clipPath id="_clip1"><polygon id="fist-raised-solid-white.svg" points="384.381,257.951 602.459,337.325 496.627,628.097 278.549,548.723 384.381,257.951 "/></clipPath><g clip-path="url(#_clip1)"><path d="M496.683,401.729l29.765,-81.779c1.827,-5.021 -0.759,-10.567 -5.779,-12.394l-18.174,-6.615c-5.02,-1.827 -10.566,0.759 -12.393,5.779l-30.371,83.444c3.218,0.027 6.477,0.473 9.675,1.637l27.277,9.928Zm52.851,80.972c7.299,-20.072 -3.049,-42.265 -23.114,-49.568l-63.686,-23.179c-4.986,-1.815 -10.491,0.728 -12.306,5.714l-0.115,0.318c-5.43,14.92 2.259,31.43 17.178,36.86l20.025,7.289c5.497,2.001 6.756,4.761 5.843,7.272l-3.349,9.2c-0.887,2.436 -3.647,3.676 -6.129,2.914c-25.754,-7.907 -41.545,0.771 -69.544,21.348l-5.541,4.074c-1.301,0.957 -2.998,1.201 -4.516,0.649c-0.896,-0.327 -1.676,-0.911 -2.241,-1.68l-5.724,-7.795c-0.957,-1.3 -1.2,-2.998 -0.648,-4.515c0.326,-0.897 0.911,-1.677 1.68,-2.242l5.541,-4.073c13.812,-10.152 26.093,-18.326 38.873,-23.206c-8.669,-6.699 -14.087,-16.781 -14.953,-27.599c-4.448,0.574 -9.07,0.249 -13.562,-1.386l-18.173,-6.614c-7.008,-2.551 -12.346,-7.587 -15.594,-13.702c-6.426,2.6 -13.752,3.027 -20.754,0.478l-18.174,-6.614c-3.203,-1.166 -5.992,-2.921 -8.477,-4.983l-16.108,44.258c-7.018,19.281 -6.09,40.552 2.582,59.151l9.57,20.533l-13.229,36.346l145.375,52.912l13.221,-36.323l27.818,-12.977c13.945,-6.505 24.746,-18.295 30.007,-32.754l18.224,-50.106Zm0.443,-57.78l24.37,-66.957c1.828,-5.02 -0.759,-10.566 -5.779,-12.394l-18.173,-6.614c-5.02,-1.827 -10.567,0.759 -12.394,5.779l-23.151,63.606l18.173,6.615c6.407,2.332 11.983,5.847 16.954,9.965Zm-202.811,-36.45l18.173,6.614c5.02,1.828 10.567,-0.759 12.394,-5.779l26.458,-72.693c1.827,-5.02 -0.759,-10.567 -5.779,-12.394l-18.174,-6.614c-5.02,-1.828 -10.566,0.759 -12.393,5.779l-26.459,72.693c-1.827,5.02 0.759,10.566 5.78,12.394Zm54.514,19.841l18.173,6.615c5.02,1.827 10.567,-0.759 12.394,-5.78l33.072,-90.866c1.828,-5.02 -0.759,-10.566 -5.779,-12.394l-18.173,-6.614c-5.02,-1.827 -10.567,0.759 -12.394,5.779l-33.073,90.866c-1.827,5.021 0.759,10.567 5.78,12.394Z" style="fill:#fff;fill-rule:nonzero;"/></g><clipPath id="_clip2"><polygon id="fist-raised-solid-white.svg1" serif:id="fist-raised-solid-white.svg" points="782.271,257.951 564.192,337.325 670.025,628.097 888.103,548.723 782.271,257.951 "/></clipPath><g clip-path="url(#_clip2)"><path d="M669.969,401.729l-29.765,-81.779c-1.827,-5.021 0.759,-10.567 5.779,-12.394l18.174,-6.615c5.02,-1.827 10.566,0.759 12.393,5.779l30.371,83.444c-3.218,0.027 -6.477,0.473 -9.675,1.637l-27.277,9.928Zm-52.851,80.972c-7.299,-20.072 3.049,-42.265 23.114,-49.568l63.685,-23.179c4.987,-1.815 10.492,0.728 12.307,5.714l0.115,0.318c5.43,14.92 -2.259,31.43 -17.178,36.86l-20.025,7.289c-5.497,2.001 -6.756,4.761 -5.843,7.272l3.349,9.2c0.887,2.436 3.647,3.676 6.129,2.914c25.754,-7.907 41.545,0.771 69.544,21.348l5.541,4.074c1.301,0.957 2.998,1.201 4.516,0.649c0.896,-0.327 1.676,-0.911 2.241,-1.68l5.724,-7.795c0.957,-1.3 1.2,-2.998 0.648,-4.515c-0.326,-0.897 -0.911,-1.677 -1.68,-2.242l-5.541,-4.073c-13.812,-10.152 -26.093,-18.326 -38.873,-23.206c8.669,-6.699 14.087,-16.781 14.953,-27.599c4.448,0.574 9.07,0.249 13.562,-1.386l18.173,-6.614c7.008,-2.551 12.346,-7.587 15.594,-13.702c6.426,2.6 13.752,3.027 20.754,0.478l18.174,-6.614c3.203,-1.166 5.992,-2.921 8.477,-4.983l16.108,44.258c7.018,19.281 6.09,40.552 -2.582,59.151l-9.57,20.533l13.229,36.346l-145.375,52.912l-13.221,-36.323l-27.818,-12.977c-13.945,-6.505 -24.746,-18.295 -30.007,-32.754l-18.224,-50.106Zm-0.443,-57.78l-24.37,-66.957c-1.828,-5.02 0.759,-10.566 5.779,-12.394l18.173,-6.614c5.02,-1.827 10.567,0.759 12.394,5.779l23.151,63.606l-18.173,6.615c-6.407,2.332 -11.983,5.847 -16.954,9.965Zm202.811,-36.45l-18.173,6.614c-5.02,1.828 -10.567,-0.759 -12.394,-5.779l-26.458,-72.693c-1.827,-5.02 0.759,-10.567 5.779,-12.394l18.174,-6.614c5.02,-1.828 10.566,0.759 12.393,5.779l26.459,72.693c1.827,5.02 -0.759,10.566 -5.78,12.394Zm-54.514,19.841l-18.173,6.615c-5.02,1.827 -10.567,-0.759 -12.394,-5.78l-33.072,-90.866c-1.828,-5.02 0.759,-10.566 5.779,-12.394l18.173,-6.614c5.02,-1.827 10.567,0.759 12.394,5.779l33.073,90.866c1.827,5.021 -0.759,10.567 -5.78,12.394Z" style="fill:#fff;fill-rule:nonzero;"/></g></g><g id="WP-Fuerte"><path d="M166.667,708.333l27.646,0l7.899,158.505l2.633,-0l15.797,-158.505l22.381,0l15.797,158.505l2.633,-0l7.899,-158.505l27.646,0l-18.43,210.638l-31.596,-0l-15.008,-110.058l-15.271,110.058l-31.596,-0l-18.43,-210.638Zm151.395,210.638l0,-210.638l42.654,0c27.12,0 34.229,16.588 36.335,56.346l0,8.425c-2.106,39.758 -9.215,56.346 -36.335,56.346l-16.324,-0l-0,89.521l-26.33,-0Zm26.33,-110.585l16.324,-0c7.899,-0 10.795,-6.582 11.849,-35.282l-0,-8.425c-1.054,-28.7 -3.95,-35.282 -11.849,-35.282l-16.324,0l-0,78.989Zm71.09,21.064l-0,-21.064l52.659,-0l0,21.064l-52.659,-0Zm78.989,89.521l-0,-210.638l55.292,0l0,21.064l-28.963,0l0,78.989l23.697,-0l0,21.064l-23.697,-0l0,89.521l-26.329,-0Zm72.406,-110.848l0,-99.79l26.33,0l-0,99.79c-0,76.092 -0,87.151 13.165,87.151c13.165,-0 13.165,-11.059 13.165,-87.151l-0,-99.79l26.329,0l0,99.79c0,84.255 0,113.48 -39.494,113.48c-39.495,0 -39.495,-29.225 -39.495,-113.48Zm104.002,110.848l0,-210.638l60.559,0l-0,21.064l-34.229,0l0,68.457l28.963,0l-0,21.064l-28.963,-0l0,73.723l34.229,-0l-0,26.33l-60.559,-0Zm78.989,-0l0,-210.638l42.654,0c27.12,0 36.335,16.588 36.335,48.447c0,28.699 -3.423,45.024 -11.585,52.922l0,1.58c6.846,2.37 8.952,14.745 11.585,45.551l5.266,62.138l-26.329,-0l-3.423,-62.138c-1.843,-31.333 -6.583,-37.915 -14.482,-37.915l-13.691,-0l0,100.053l-26.33,-0Zm26.33,-121.117l16.324,0c9.216,0 11.849,-9.215 11.849,-41.074c-0,-20.801 -3.95,-27.383 -11.849,-27.383l-16.324,0l0,68.457Zm68.457,-65.824l0,-23.697l78.989,0l0,23.697l-26.33,0l0,186.941l-26.329,-0l-0,-186.941l-26.33,0Zm94.787,186.941l-0,-210.638l60.558,0l0,21.064l-34.229,0l0,68.457l28.963,0l0,21.064l-28.963,-0l0,73.723l34.229,-0l0,26.33l-60.558,-0Z" style="fill:#fff;fill-rule:nonzero;"/></g><g id="Stronger-WP" serif:id="Stronger WP"><path d="M326.667,1026.92c-1.834,-3.417 2.833,-5.917 5,-2.5c1.083,1.75 4.333,4.75 9.5,4.75c2.166,-0 7.583,-1.584 8.333,-7.75c0.5,-3.75 -3.083,-7.417 -9.25,-10.5c-8.667,-4.084 -15.25,-7.667 -15.25,-14.834c0,-8.5 7.167,-12.5 14.833,-12.5c6.917,0 10.75,4.25 12.084,6.417c1.916,3.083 -2.25,6.083 -4.584,3.083c-1.166,-1.5 -3.416,-4 -7.5,-4c-4.583,0 -9.333,2.167 -9.333,7c0,3.834 4.25,6 10.583,9c7.417,3.667 15.167,7.25 14,17c-0.916,7.667 -6.75,12.584 -13.916,12.584c-5.417,-0 -12.084,-2.917 -14.5,-7.75Zm45.5,-43l25.166,-0c1.75,-0 2.584,1.416 2.584,2.833c-0,1.417 -0.834,2.75 -2.584,2.75l-9.5,0l0,41.917c0,1.75 -1.416,2.666 -2.833,2.666c-1.417,0 -2.75,-0.916 -2.75,-2.666l0,-41.917l-10.083,0c-1.75,0 -2.584,-1.333 -2.584,-2.75c0,-1.417 0.834,-2.833 2.584,-2.833Zm51,35.583l-0,11.917c-0,1.833 -1.417,2.666 -2.75,2.666c-1.417,0 -2.75,-0.833 -2.75,-2.666l-0,-44.75c-0,-1.667 0.916,-2.75 2.75,-2.75l11.25,-0c3.166,-0 13.166,0.916 13.166,12.166l0,10.417c0,6.333 -2.333,10.333 -7.666,12.083l5.666,11.417c1.167,2.25 -0.583,4.083 -2.416,4.083c-1,0 -2.25,-0.666 -2.917,-2.083l-6.083,-12.5l-8.25,0Zm16.166,-13l0,-10.417c0,-2 -0.75,-6.583 -7.666,-6.583l-8.5,0l-0,24.417l7.75,-0c4.083,-0 8.416,-0.917 8.416,-7.417Zm24.917,12.833l0,-20.666c0,-10 5.167,-15.334 15.167,-15.334l2.166,0c9.917,0 15.167,5.334 15.167,15.334l0,20.666c0,9.167 -6.083,15.167 -15.167,15.167l-2.166,0c-9.25,0 -15.167,-6.083 -15.167,-15.167Zm15.167,9.584l2.166,-0c6,-0 9.584,-3.75 9.584,-9.584l-0,-20.666c-0,-6.5 -3.167,-9.834 -9.584,-9.834l-2.166,0c-6.334,0 -9.834,3.417 -9.834,9.834l0,20.666c0,6.084 3.834,9.584 9.834,9.584Zm65.583,-42.334l0,44.834c0,1.75 -1.333,2.666 -2.667,2.666c-1,0 -2.333,-0.75 -2.916,-1.833c-6.25,-12.25 -10.917,-21.667 -17.167,-34l0,33.167c0,1.75 -1.333,2.666 -2.75,2.666c-1.333,0 -2.75,-0.916 -2.75,-2.666l0,-44.834c0,-2.916 4.167,-3.083 5.083,-1.333l17.584,34.75l-0,-33.417c-0,-1.75 1.333,-2.666 2.75,-2.666c1.416,-0 2.833,0.916 2.833,2.666Zm20.25,32.834l0,-20.084c0,-12 6.583,-15.583 16.25,-15.583c8,0 15.75,4.083 15.75,12.5c0,1.833 -1.333,2.75 -2.75,2.75c-1.417,0 -2.833,-0.917 -2.833,-2.75c-0,-4.25 -4.667,-7.083 -10.167,-7.083c-7.583,-0 -10.75,3.083 -10.75,10.166l0,20.084c0,7.25 4,9.5 10.75,9.5c8,-0 10.833,-3.834 10.833,-11.25l0,-3.5l-7.5,-0c-1.75,-0 -2.666,-1.334 -2.666,-2.75c-0,-1.417 0.916,-2.834 2.666,-2.834l10.417,0c1.667,0 2.583,1.667 2.583,2.834l0,6.25c0,12 -4.666,16.666 -16.333,16.666c-11,0 -16.25,-4 -16.25,-14.916Zm52.083,11.75l0,-44.334c0,-1.916 1.5,-2.916 2.917,-2.916l19.167,-0c1.833,-0 2.75,1.333 2.75,2.75c-0,1.416 -0.917,2.833 -2.75,2.833l-16.5,0l-0,16.167l13.083,-0c1.917,-0 2.833,1.333 2.833,2.75c0,1.416 -1,2.916 -2.833,2.916l-13.083,0l-0,17.25l16.5,0c1.75,0 2.666,1.417 2.666,2.75c0,1.417 -0.916,2.75 -2.666,2.75l-19.167,0c-1.417,0 -2.917,-0.5 -2.917,-2.916Zm49.584,-11.667l-0,11.917c-0,1.833 -1.417,2.666 -2.75,2.666c-1.417,0 -2.75,-0.833 -2.75,-2.666l-0,-44.75c-0,-1.667 0.916,-2.75 2.75,-2.75l11.25,-0c3.166,-0 13.166,0.916 13.166,12.166l0,10.417c0,6.333 -2.333,10.333 -7.666,12.083l5.666,11.417c1.167,2.25 -0.583,4.083 -2.416,4.083c-1,0 -2.25,-0.666 -2.917,-2.083l-6.083,-12.5l-8.25,0Zm16.166,-13l0,-10.417c0,-2 -0.75,-6.583 -7.666,-6.583l-8.5,0l-0,24.417l7.75,-0c4.083,-0 8.416,-0.917 8.416,-7.417Zm71.584,17.417l10,-26.5l-2.5,-9.75c-1.084,-4 4.5,-5 5.416,-1.5l9.834,36.166l10.583,-36.166c1.083,-3.75 6.583,-2.167 5.5,1.416l-12.917,43.917c-0.5,1.583 -1.916,2.583 -3.25,2.583c-1.5,0 -2.833,-0.916 -3.333,-2.583l-6.833,-25.083c-3.167,8.333 -6.5,16.833 -9.584,25.166c-0.583,1.5 -1.916,2.5 -3.166,2.5c-1.25,0 -2.5,-0.833 -3.084,-2.666l-13.25,-43.834c-1.083,-3.583 4,-4.75 5.084,-1.583l11.5,37.917Zm85.416,-27.834l0,10.417c0,9.917 -5.166,13.083 -13.916,13.083l-7.75,0l-0,11.834c-0,1.75 -1.417,2.666 -2.75,2.666c-1.417,0 -2.75,-0.916 -2.75,-2.666l-0,-44.75c-0,-1.584 1.333,-2.75 2.75,-2.75l11.25,-0c4.583,-0 13.166,0.916 13.166,12.166Zm-13.166,-6.583l-8.5,0l-0,24.417l7.75,-0c4.083,-0 8.5,-1 8.416,-7.5l-0.083,-10.334c0,-2 -0.333,-6.583 -7.583,-6.583Z" style="fill:#fff;fill-rule:nonzero;"/></g></svg>